<svg version="1" xmlns="http://www.w3.org/2000/svg" width="1066.667" height="1066.667" viewBox="0 0 800.000000 800.000000"><path d="M60.9 5C47 7.8 32.8 15.7 23.3 25.7c-4.4 4.6-11 15-13.7 21.3-5.8 14.1-5.4-9.4-5.5 355 0 328 .1 335.7 1.9 343 5.2 20 18.9 37.4 36.8 46.3 17.7 8.9-18.4 8.1 359.2 8 301.7 0 335.1-.1 340.5-1.6 3.3-.8 6.7-1.7 7.5-1.9.8-.1 5.3-2.2 10-4.5 19.1-9.4 33.4-28.4 37.5-49.7 1.2-6 1.4-60.6 1.4-341.1v-334l-2.4-9.4c-2.5-9.5-7-18.9-12.7-26.4-8.6-11.3-24.4-21.5-39.3-25.3-6.7-1.8-22.3-1.8-341.1-2C91.9 3.3 68.7 3.4 60.9 5zm680.5 4.7c23.7 4.9 41.6 21.4 49.8 45.9l2.3 6.9v679l-2.7 7.3c-4.2 11.3-8.5 18.1-16.7 26.2-8.6 8.6-19.2 14.6-30.6 17.6-6.7 1.7-22.2 1.8-342.5 1.8-318.1 0-335.8-.1-342-1.8-12.3-3.4-20.7-8.3-30.1-17.6-7-6.9-9.4-10.1-12.8-17-7.7-16-7.1 17-6.8-359l.2-337.5 2.8-8C18.5 36 30 23 46.5 14.8c4.7-2.3 14.8-5.4 20.5-6.1 1.4-.2 152.1-.4 335-.4 284.5 0 333.5.2 339.4 1.4z"/><path d="M67.2 24.5c-18.5 4.4-34.3 19.2-40.3 37.7l-2.4 7.3.1 329c0 180.9.3 331 .6 333.5 1.5 11.1 9 24.5 18.1 32.5 6.5 5.8 17.3 11.1 25.7 12.8 5.3 1 68.7 1.3 334.5 1.1 302.9-.1 328.5-.3 333.9-1.8 14.9-4.2 28.5-15.3 34.9-28.6 6.8-14.3 6.3 12.7 6.2-348.5-.1-180.4-.5-329.6-.9-331.5-3.7-16.8-14.7-31.4-29.1-38.5-13.9-7 15.9-6.4-347-6.4-265.3.1-330 .3-334.3 1.4zm599.9 110.8c.4 5.3.3 531.7-.1 531.8-.3.1-119.7.2-265.3.3-175.7.1-265.1-.2-265.5-.9-.4-.6-.7-120.6-.7-266.7V134h265.8c211 0 265.7.3 265.8 1.3z"/><path d="M360.3 211.5c-1.7.7-3.6 2.2-4.2 3.4-.6 1.1-1.1 8-1.2 16 0 7.8-.3 14.1-.7 14.2-.4.1-3.2.2-6.3.4-13.9.7-22.4 10.9-25.5 30.8-8.9 55.2-38.6 123.3-83.9 192.2-10.3 15.6-13.5 22.4-17 36.3-4.3 16.9-1.2 37.8 7.7 50.8 10.5 15.6 29.6 25.5 49.2 25.6 9.5 0 13-.6 21.3-3.3 20-6.6 34-24.4 38.4-48.9.8-4.6 1.1-34.8 1.1-102.8V330h15.6v116.7c.1 64.3.1 118.8.1 121.3l.1 4.5h16.5l.3 13.2.3 13.3H551V572.3l7.6.1c4.1.1 7.9-.1 8.4-.4.4-.3.7-80.5.7-178.2l-.2-177.8-2.8-2.7-2.7-2.8-99.3-.2c-82.1-.2-99.7 0-102.4 1.2zM524 246.7c3.6 1.5 6.7 5.3 7.7 9.3 1.4 5.5 1 93-.5 95.7-.7 1.2-2.9 3.5-4.9 5l-3.6 2.8H400.2l-3.9-3.1c-2.1-1.7-4.3-4.5-4.8-6.1-.6-1.9-1-20.6-1-48.5v-45.5l2.4-3.5c2.8-4.1 5.4-5.9 9.6-6.8 5.3-1.1 118.8-.4 121.5.7zM322.4 432.2c0 48.6-.4 90.5-.8 93.2-4.1 28.8-28.4 44.9-55.5 37-23.9-6.9-34.7-29.5-27.2-56.9 2.6-9.5 5.4-15 14.9-29.5 7.2-10.9 26.2-41.8 26.2-42.5 0-.2 1.6-3.2 3.6-6.7 4.5-7.8 18.2-34.9 22.4-44.3 4.2-9.2 15-36.2 15-37.5 0-.5.3-1 .8-1 .4 0 .7 39.7.6 88.2z"/></svg>